<?xml version="1.0" encoding="UTF-8"?>
<svg version="1.1" xmlns="http://www.w3.org/2000/svg" width="525" height="525">
<path d="M0 0 C2.98579662 -0.038827 5.95662742 0.00324574 8.94140625 0.0859375 C9.91851562 0.10269531 10.895625 0.11945312 11.90234375 0.13671875 C19.73533106 0.49650163 27.03234561 2.28595415 33.94140625 6.0859375 C35.31661757 7.71822099 36.65469605 9.38301871 37.94140625 11.0859375 C39.70200345 12.22782702 39.70200345 12.22782702 41.50390625 12.9609375 C44.71318244 14.69958177 46.23173911 16.44465288 47.453125 20.00390625 C48.95961258 26.4275693 48.97330442 32.90824207 48.90161133 39.4699707 C48.32243291 49.57913952 48.32243291 49.57913952 50.94140625 59.0859375 C52.85321844 60.79954886 54.7408552 62.13197746 56.96875 63.40625 C60.86970303 66.72785357 61.84492438 71.11043908 62.32958984 76.01074219 C62.34913993 77.42630142 62.35183668 78.84216907 62.33984375 80.2578125 C62.34271393 81.02087708 62.34558411 81.78394165 62.34854126 82.57012939 C62.35057181 84.17696886 62.34511295 85.78383361 62.33251953 87.390625 C62.3165397 89.8156849 62.3323555 92.23905575 62.3515625 94.6640625 C62.37062148 106.77608185 60.65613676 116.67820301 54.87890625 127.4609375 C48.73400302 139.20954148 47.87001195 149.09901102 47.44140625 162.32421875 C47.38110985 164.08353981 47.38110985 164.08353981 47.31959534 165.87840271 C47.1896873 169.71829677 47.06532898 173.55834596 46.94140625 177.3984375 C46.89687418 178.74068715 46.85218497 180.08293159 46.80734253 181.4251709 C46.22773538 198.82136715 45.8039988 216.21343842 45.55078125 233.61785889 C45.25324414 254.04447854 44.43188423 274.38711772 43.23568726 294.78067017 C42.10957584 314.07437499 41.49004617 333.33848214 41.23242188 352.6628418 C40.98291824 371.0499428 40.55456277 388.43334713 34.94140625 406.0859375 C34.66554688 407.04628906 34.3896875 408.00664062 34.10546875 408.99609375 C29.58151005 423.97929028 21.58618564 432.75893318 7.94140625 440.0859375 C2.11354286 442.86412704 -3.55408208 444.59084578 -9.9296875 445.59375 C-12.34106222 446.01928768 -12.34106222 446.01928768 -15.05859375 448.0859375 C-16.19550814 451.12923686 -17.02956518 454.20649262 -17.8984375 457.3359375 C-19.25425848 460.54973538 -19.99769136 460.74417207 -23.05859375 462.0859375 C-23.75645239 463.4032133 -24.42119551 464.7383672 -25.05859375 466.0859375 C-26.86328125 467.90234375 -26.86328125 467.90234375 -28.93359375 469.6484375 C-29.95066406 470.51662109 -29.95066406 470.51662109 -30.98828125 471.40234375 C-31.67148437 471.95792969 -32.3546875 472.51351563 -33.05859375 473.0859375 C-33.70441406 473.61832031 -34.35023438 474.15070313 -35.015625 474.69921875 C-37.27435435 476.23239068 -39.25166933 476.96017334 -41.87109375 477.7109375 C-42.68191406 477.95070313 -43.49273437 478.19046875 -44.328125 478.4375 C-50.07031775 479.80116809 -55.68630694 480.21786647 -61.57592773 480.26293945 C-62.2925206 480.26951065 -63.00911346 480.27608185 -63.74742126 480.28285217 C-66.09984479 480.30242633 -68.45220475 480.31421626 -70.8046875 480.32421875 C-71.61677233 480.32829428 -72.42885715 480.3323698 -73.26555061 480.33656883 C-77.56985334 480.35736896 -81.87412483 480.37169288 -86.1784668 480.38110352 C-90.57909831 480.39211444 -94.97921676 480.42646971 -99.37966824 480.46627522 C-102.80221867 480.49268388 -106.22465169 480.5008169 -109.647295 480.50438499 C-111.26689148 480.509194 -112.88648482 480.52064075 -114.50597954 480.53942299 C-130.37818578 480.71196433 -147.453471 478.78893587 -160.05859375 468.0859375 C-160.05859375 467.4259375 -160.05859375 466.7659375 -160.05859375 466.0859375 C-160.61546875 465.87582031 -161.17234375 465.66570312 -161.74609375 465.44921875 C-164.85945043 463.61381084 -166.83592288 461.05851145 -169.05859375 458.2734375 C-169.69667969 457.49129883 -169.69667969 457.49129883 -170.34765625 456.69335938 C-171.59255616 455.16396547 -172.82572564 453.62504689 -174.05859375 452.0859375 C-175.13367188 450.89291016 -175.13367188 450.89291016 -176.23046875 449.67578125 C-178.50785351 446.44948617 -179.45271018 443.25718817 -180.30859375 439.4609375 C-180.47625244 438.72528564 -180.64391113 437.98963379 -180.81665039 437.23168945 C-183.2601157 425.4193297 -183.35465818 413.09103102 -179.71484375 401.53125 C-179.00188263 398.87462108 -178.76699693 396.82246146 -179.05859375 394.0859375 C-180.08251328 392.31955355 -180.08251328 392.31955355 -181.62109375 390.8359375 C-182.16507813 390.23523438 -182.7090625 389.63453125 -183.26953125 389.015625 C-184.48225671 387.70757614 -185.69582534 386.40030858 -186.91015625 385.09375 C-196.71752885 373.70050438 -195.72671324 359.0080668 -195.27026367 344.75683594 C-195.00448082 341.40312845 -194.3327477 338.25272126 -193.52368164 334.99316406 C-192.63045858 331.3302462 -192.33529526 327.79645873 -193.05859375 324.0859375 C-195.26723796 321.21042228 -195.26723796 321.21042228 -198.05859375 319.0859375 C-201.43557963 315.43126843 -202.64650769 311.0290058 -204.18359375 306.3984375 C-205.50354077 301.3609231 -205.50354077 301.3609231 -208.05859375 297.0859375 C-210.04629542 284.31311377 -209.18392731 270.05997004 -204.05859375 258.0859375 C-204.05859375 252.74606106 -207.90243644 249.06889673 -211.05859375 245.0859375 C-220.39328658 233.00574678 -220.30456365 218.3955104 -218.703125 203.859375 C-216.01413072 189.0124493 -208.34245186 174.0905162 -196.05859375 165.0859375 C-186.85644013 159.03997911 -175.27710905 154.01377852 -164.1318512 153.92771912 C-162.68310608 153.91303589 -162.68310608 153.91303589 -161.20509338 153.89805603 C-159.63319496 153.88942284 -159.63319496 153.88942284 -158.02954102 153.88061523 C-156.36041153 153.86576584 -156.36041153 153.86576584 -154.65756226 153.85061646 C-150.98006309 153.81903846 -147.30255115 153.79425028 -143.625 153.76953125 C-141.06818819 153.74895035 -138.51137971 153.72795358 -135.95457458 153.70655823 C-129.90932182 153.65700413 -123.86405151 153.61174423 -117.81875128 153.56853586 C-110.95953739 153.51925394 -104.10037314 153.46424315 -97.24120629 153.40885627 C-86.56651206 153.32285579 -75.89179649 153.23990003 -65.21704102 153.16186523 C-63.64817894 153.15019569 -63.64817894 153.15019569 -62.04762268 153.13829041 C-61.07897278 153.13132141 -60.11032288 153.12435242 -59.11231995 153.11717224 C-58.22751513 153.10990553 -57.3427103 153.10263882 -56.43109322 153.0951519 C-54.42857548 153.08737445 -52.42597091 153.11187804 -50.4236908 153.14369202 C-48.10177419 153.35899593 -48.10177419 153.35899593 -47.05859375 152.0859375 C-46.94853835 138.72521143 -52.65386803 127.60829974 -59.12786865 116.20202637 C-60.17791459 113.81465063 -60.31207089 112.16326256 -60.31738281 109.56445312 C-60.32368713 108.67673218 -60.32999146 107.78901123 -60.33648682 106.87438965 C-60.33041412 105.44769958 -60.33041412 105.44769958 -60.32421875 103.9921875 C-60.3261322 103.00851196 -60.32804565 102.02483643 -60.33001709 101.01135254 C-60.33137688 98.93350976 -60.32769482 96.85565844 -60.31933594 94.77783203 C-60.30863363 91.59778761 -60.31923832 88.41830811 -60.33203125 85.23828125 C-60.33070962 83.21874875 -60.32814715 81.19921661 -60.32421875 79.1796875 C-60.32826721 78.22856079 -60.33231567 77.27743408 -60.33648682 76.29748535 C-60.32703033 74.96590393 -60.32703033 74.96590393 -60.31738281 73.60742188 C-60.31579163 72.82894897 -60.31420044 72.05047607 -60.31256104 71.24841309 C-60.02809743 68.826268 -59.26362685 67.18949364 -58.05859375 65.0859375 C-57.39859375 65.0859375 -56.73859375 65.0859375 -56.05859375 65.0859375 C-55.71828125 63.9721875 -55.71828125 63.9721875 -55.37109375 62.8359375 C-53.79963765 59.5433628 -52.05863659 58.11096641 -49.05859375 56.0859375 C-48.39859375 56.0859375 -47.73859375 56.0859375 -47.05859375 56.0859375 C-47.06906738 55.05710449 -47.07954102 54.02827148 -47.09033203 52.96826172 C-47.12666974 49.13284822 -47.14954413 45.2974498 -47.16845703 41.46191406 C-47.17848332 39.80531247 -47.19210781 38.14872843 -47.20947266 36.4921875 C-47.23386996 34.10412245 -47.24511069 31.71629242 -47.25390625 29.328125 C-47.26422882 28.59351044 -47.27455139 27.85889587 -47.28518677 27.10202026 C-47.28613428 22.7096646 -46.81169724 19.12530865 -45.05859375 15.0859375 C-33.00889671 3.03624046 -16.35183902 0.45943864 0 0 Z " fill="#74746F" transform="translate(329.05859375,21.9140625)"/>
<path d="M0 0 C3.650625 0.928125 3.650625 0.928125 7.375 1.875 C9.59101676 2.42555488 11.80845549 2.96983596 14.02636719 3.51269531 C15.59607047 3.90026678 17.16203007 4.30299351 18.7265625 4.7109375 C32.44405104 7.96353787 47.46459786 6.49703494 60.5 1.3125 C63.9597344 0.0150996 66.34658 -0.2740065 70 0 C71.97204071 5.91612214 71.87645564 12.50902081 69.8125 18.375 C63.70031929 24.079702 56.07141125 27.375 47.6875 27.375 C46.12281386 27.28125276 44.55839357 27.16864379 43 27 C43.33 27.66 43.66 28.32 44 29 C57.98985358 29.69356668 57.98985358 29.69356668 71 25 C71.33 24.67 71.66 24.34 72 24 C75.25 23.5625 75.25 23.5625 79 24 C82.60705289 27.14657806 83.71742545 28.80449231 84.8125 33.4375 C83.57580377 38.85993731 80.55707258 41.02799615 76 44 C62.94918347 51.08093858 50.55700866 53.56456411 36 55 C39.83326795 55.05859888 43.66641888 55.09379643 47.5 55.125 C48.57765625 55.14175781 49.6553125 55.15851563 50.765625 55.17578125 C60.55582393 55.23547758 67.61013506 53.41807999 76.38671875 49.0234375 C79.15263927 47.94022199 81.05838752 47.72180898 84 48 C85.78347024 49.78347024 85.42241391 52.13334754 85.5625 54.5625 C85.53464757 63.01106926 81.9452295 69.01389829 77.96582031 76.20507812 C72.59294699 86.19025625 70.68468558 96.1859823 70.77967834 107.42330933 C70.78008619 108.43595891 70.78049404 109.4486085 70.78091425 110.49194443 C70.78462758 113.86565361 70.80262922 117.2391317 70.82055664 120.61279297 C70.82603534 123.03958959 70.83058398 125.46638847 70.83427429 127.89318848 C70.84397014 133.11013499 70.85958687 138.32702839 70.88023567 143.5439415 C70.90986081 151.09856933 70.92542139 158.65317867 70.93704777 166.20785333 C70.95603654 178.48249942 70.98177242 190.75711975 71.01391602 203.03173828 C71.01583395 203.76543582 71.01775188 204.49913335 71.01972794 205.25506414 C71.04126961 213.43868405 71.06444249 221.62229806 71.0894165 229.8059082 C71.09844853 232.77311192 71.10746502 235.74031569 71.11645508 238.70751953 C71.11867673 239.43971049 71.12089839 240.17190145 71.12318737 240.92628001 C71.15996577 253.15446962 71.18500547 265.38265237 71.20092481 277.61088669 C71.21123099 285.14225619 71.23157292 292.67346678 71.26504242 300.20476963 C71.28988561 305.98081491 71.29913201 311.75680421 71.30273628 317.53289795 C71.30674568 319.89553424 71.31591011 322.25816847 71.33069992 324.62076187 C71.35021087 327.85489971 71.35097369 331.08854037 71.3473053 334.32272339 C71.35740806 335.24949823 71.36751083 336.17627308 71.37791973 337.13113201 C71.33060587 345.9179369 69.90272093 355.17497892 64 362 C63.01 362 62.02 362 61 362 C60.814375 362.825 60.62875 363.65 60.4375 364.5 C55.5623231 376.36999594 43.53780792 382.10542269 32.41015625 387.0546875 C28.5569907 388.56597771 25.39094782 389.12339629 21.25 389.0625 C20.45078125 389.05347656 19.6515625 389.04445313 18.828125 389.03515625 C17.92320312 389.01775391 17.92320312 389.01775391 17 389 C16.69707031 388.21496094 16.39414062 387.42992187 16.08203125 386.62109375 C13.28575709 379.50726525 13.28575709 379.50726525 9.25 373.0625 C7.1166935 370.15883283 6.3208757 368.52963275 6 365 C7.7015625 364.2265625 7.7015625 364.2265625 9.4375 363.4375 C16.9561037 359.66486729 22.83408723 354.57479807 28 348 C28.66 347.67 29.32 347.34 30 347 C33.02421631 340.82142692 33.54783354 334.46184786 33.5 327.6875 C33.49359497 326.30872681 33.49359497 326.30872681 33.48706055 324.90209961 C33.22206409 314.28070442 29.89759377 306.91194579 23 299 C24 296 24 296 26.22265625 294.640625 C27.15980469 294.18171875 28.09695313 293.7228125 29.0625 293.25 C35.13149456 290.07739166 40.54778485 286.40184748 44.59375 280.7890625 C45.0578125 280.19867188 45.521875 279.60828125 46 279 C46.66 279 47.32 279 48 279 C52.20955802 265.99547253 53.25366249 252.47100177 47.515625 239.796875 C41.87317215 229.38451355 33.43684961 225.71099094 23 221 C23.7109375 216.28125 23.7109375 216.28125 26.3125 213.75 C32.89802971 207.01131844 33.72004188 199.21900771 33.625 190.125 C33.61879639 189.0623291 33.61259277 187.9996582 33.60620117 186.90478516 C33.38984343 178.99035794 32.12646423 173.23024839 27 167 C26.60554687 166.40703125 26.21109375 165.8140625 25.8046875 165.203125 C22.53413681 160.58318626 17.94724167 158.4022909 13 156 C11.89413213 155.46024646 11.89413213 155.46024646 10.7659235 154.90958881 C4.04965225 151.92397872 -1.75259952 151.44316921 -9.04321289 151.5300293 C-10.20374176 151.5278389 -11.36427063 151.5256485 -12.55996704 151.52339172 C-16.36449454 151.52109528 -20.16823307 151.54724606 -23.97265625 151.57421875 C-26.62399013 151.57914529 -29.27528663 151.58259172 -31.92662048 151.58418274 C-37.46510015 151.59060515 -43.00335689 151.61176853 -48.54174805 151.64331055 C-55.65750314 151.68378179 -62.77311411 151.70102874 -69.88897038 151.71061993 C-76.66688922 151.71979147 -83.44476554 151.74046136 -90.22265625 151.76171875 C-92.17243724 151.76681237 -92.17243724 151.76681237 -94.16160774 151.7720089 C-97.81490223 151.78352085 -101.46808698 151.80202747 -105.12133789 151.82299805 C-106.21477005 151.82568695 -107.30820221 151.82837585 -108.43476868 151.83114624 C-109.91707977 151.8418792 -109.91707977 151.8418792 -111.42933655 151.85282898 C-112.72479196 151.8592392 -112.72479196 151.8592392 -114.04641819 151.86577892 C-116.00437334 151.78538129 -116.00437334 151.78538129 -117 153 C-117.04080783 154.99958364 -117.04254356 157.00045254 -117 159 C-116.44452799 158.99962297 -115.88905598 158.99924595 -115.31675148 158.9988575 C-101.71592166 158.99169822 -88.11550712 159.01839086 -74.51481056 159.0802784 C-67.93718734 159.10921375 -61.3599173 159.12740896 -54.78222656 159.12011719 C-48.4212025 159.11347646 -42.06087342 159.13627794 -35.69999313 159.17855453 C-33.28665011 159.18960165 -30.87323588 159.19046286 -28.45988846 159.18042374 C-11.26494322 159.11812872 6.04038911 159.29683939 19 172 C24.71224451 178.05067689 24.43621196 184.05242636 24.25561523 192.00488281 C24.18738133 194.00390664 24.09605194 196.00211958 24 198 C23.34 198 22.68 198 22 198 C21.95875 198.66 21.9175 199.32 21.875 200 C19.75420334 207.27130282 14.52193482 211.76657126 8.34375 215.7734375 C1.4106677 219.40175057 -4.97084631 219.29053003 -12.63964844 219.2746582 C-13.91193298 219.27976913 -15.18421753 219.28488007 -16.49505615 219.29014587 C-19.97462957 219.30350147 -23.45409412 219.30411814 -26.93368816 219.30158257 C-29.84586016 219.30051 -32.75801039 219.30540383 -35.6701777 219.310188 C-42.5467367 219.32127243 -49.42324108 219.32172733 -56.29980469 219.31567383 C-63.37414434 219.30964149 -70.44828473 219.32192857 -77.5225904 219.3432439 C-83.61200208 219.36091144 -89.70135064 219.36685296 -95.79078698 219.36360615 C-99.42065618 219.3618005 -103.05038339 219.36435667 -106.68022919 219.37832069 C-110.73454015 219.3933344 -114.78845113 219.3838841 -118.84277344 219.37231445 C-120.03169189 219.37995819 -121.22061035 219.38760193 -122.44555664 219.39547729 C-138.42001167 219.29505119 -151.31686758 212.76766309 -163 202 C-165.76304295 198.9097546 -166 198.37331582 -166 194 C-166.598125 193.79375 -167.19625 193.5875 -167.8125 193.375 C-171.46403156 191.07975159 -172.48590388 187.82328498 -173.62890625 183.76953125 C-176.35443132 171.78103286 -175.1988461 160.73054475 -170.5 149.375 C-169 147 -169 147 -166 145 C-165.1646875 143.4221875 -165.1646875 143.4221875 -164.3125 141.8125 C-161.07647986 135.8507552 -155.10553217 130.88316797 -149 128 C-147.68 128 -146.36 128 -145 128 C-145 127.34 -145 126.68 -145 126 C-137.40988622 123.20665828 -130.61917016 122.58154046 -122.57373047 122.65942383 C-121.37258102 122.65898575 -120.17143158 122.65854767 -118.93388367 122.65809631 C-115.67202484 122.65981612 -112.41056284 122.67475902 -109.14878225 122.69581819 C-105.72820384 122.71469752 -102.30761588 122.71634422 -98.88699341 122.71989441 C-92.42383856 122.72918208 -85.96083773 122.75375089 -79.4977504 122.78394288 C-72.13371429 122.81758963 -64.76967044 122.8339986 -57.40557647 122.84902918 C-42.27029881 122.88030382 -27.13516488 122.93299974 -12 123 C-11.67 125.97 -11.34 128.94 -11 132 C-7.37 131.01 -3.74 130.02 0 129 C-0.04493235 124.98320278 -0.11553556 120.96766127 -0.20751953 116.95166016 C-0.24881684 114.93283864 -0.27117249 112.91365748 -0.29296875 110.89453125 C-0.60942445 98.04642985 -3.80420281 87.09546422 -9.046875 75.42578125 C-10 73 -10 73 -10 70 C-10.99 69.67 -11.98 69.34 -13 69 C-17.21112901 62.68330649 -16.2538279 55.02933565 -16.3125 47.6875 C-16.34150391 46.48931641 -16.37050781 45.29113281 -16.40039062 44.05664062 C-16.45780212 36.04111255 -15.92728989 30.21722404 -10.25390625 24.125 C-9.69574219 23.75375 -9.13757813 23.3825 -8.5625 23 C-8.00691406 22.608125 -7.45132813 22.21625 -6.87890625 21.8125 C-5 21 -5 21 0 21 C0 14.07 0 7.14 0 0 Z " fill="#F9EE5A" transform="translate(295,66)"/>
<path d="M0 0 C2.2958307 0.88870866 4.55933554 1.76728955 6.73828125 2.91796875 C23.07256511 11.19612038 42.70046887 9.3963984 60.48690796 9.31899452 C65.45593981 9.29759353 70.4247422 9.30269073 75.39379883 9.3120575 C89.50950088 9.33477489 103.62505792 9.32291595 117.74072266 9.28491211 C125.56745463 9.26407163 133.3938963 9.26480162 141.22062302 9.28844708 C146.15345157 9.30206379 151.08524405 9.28908832 156.01796818 9.25584948 C159.08760953 9.24145223 162.15679174 9.2521885 165.22640038 9.26983261 C166.64170043 9.27299403 168.05706785 9.26601446 169.4722538 9.24776649 C178.22303399 9.1416545 184.46095194 9.83696284 191 16 C196 21.68306497 196 21.68306497 196 25 C196.66 25 197.32 25 198 25 C202.1165399 31.17480985 200.85476997 40.82200982 200 48 C197.26074008 56.59039969 190.83084837 61.15794135 183.36306763 65.55134583 C179.49405246 67.21793883 176.20073446 67.44062507 172.06591797 67.43237305 C171.28928897 67.44255337 170.51265997 67.45273369 169.71249676 67.4632225 C167.13898757 67.49338233 164.56585046 67.50262165 161.9921875 67.51171875 C160.16795167 67.52879855 158.34372728 67.54714025 156.51951599 67.56666565 C151.64454929 67.61497986 146.76963783 67.64489413 141.89450455 67.67036438 C136.86604397 67.69890078 131.8377012 67.74164263 126.80932617 67.78222656 C117.90196079 67.85162933 108.99457864 67.90494765 100.08707142 67.9521656 C93.69113337 67.9872537 87.29553878 68.03896577 80.89983368 68.10328007 C75.44037635 68.15802278 69.9809425 68.19818285 64.52130127 68.22915649 C62.40843231 68.24288112 60.29558715 68.26113553 58.18280029 68.28427124 C40.82723633 68.46232299 24.95296003 67.74959555 11.72265625 54.93359375 C2.08511067 45.08951902 -3.2691483 35.61619429 -3.17578125 21.56445312 C-3.15902344 20.57380859 -3.14226562 19.58316406 -3.125 18.5625 C-3.11597656 17.54478516 -3.10695312 16.52707031 -3.09765625 15.47851562 C-3.07424698 12.98542844 -3.041457 10.49284141 -3 8 C-2.34 8 -1.68 8 -1 8 C-0.67 5.36 -0.34 2.72 0 0 Z " fill="#F9EE5B" transform="translate(136,286)"/>
<path d="M0 0 C2.9375 0.375 2.9375 0.375 6 1 C6.33 1.66 6.66 2.32 7 3 C19.2417978 8.36560159 32.80436109 7.55832596 45.87420082 7.51642036 C49.87309707 7.50367578 53.87156535 7.51469039 57.8704071 7.53245544 C65.63213067 7.56303852 73.39372197 7.56478474 81.15549469 7.56280518 C91.05277099 7.5614049 100.94994665 7.57193639 110.84714955 7.6113829 C115.44854533 7.62858155 120.04955509 7.6217734 124.6509552 7.61024475 C127.0684938 7.61639067 129.48603062 7.62330297 131.90356445 7.63110352 C133.52547195 7.61952461 133.52547195 7.61952461 135.18014526 7.60771179 C144.26975151 7.6680135 152.18775798 9.33381161 159.875 14.375 C160.75929688 14.93960937 161.64359375 15.50421875 162.5546875 16.0859375 C166.71660872 19.34367137 169.49970987 22.91107621 171 28 C172.22715416 39.3027357 170.46197355 47.51742259 163.375 56.5 C161 59 161 59 158 61 C157.01 61 156.02 61 155 61 C154.67 61.99 154.34 62.98 154 64 C148.59517507 66.66356968 142.88051403 66.28880625 136.99682617 66.2746582 C135.8984996 66.27976913 134.80017303 66.28488007 133.66856384 66.29014587 C130.0433098 66.3040281 126.41824619 66.30308589 122.79296875 66.30078125 C120.26719594 66.30466931 117.74142378 66.30900421 115.21565247 66.31376648 C109.92230847 66.32122605 104.62903406 66.32107832 99.33569336 66.31567383 C93.23493724 66.30964025 87.13441212 66.32193297 81.0336954 66.3432439 C75.14544733 66.36304932 69.25728909 66.36602574 63.36901283 66.36250877 C60.87284109 66.36302112 58.37666559 66.36824252 55.88051414 66.37832069 C52.38394951 66.3907041 48.88791406 66.3838811 45.39135742 66.37231445 C44.36715698 66.37995819 43.34295654 66.38760193 42.28771973 66.39547729 C31.93573451 66.32006867 24.86298817 63.59874302 17 57 C15.89011719 56.14148438 15.89011719 56.14148438 14.7578125 55.265625 C9.24106766 50.82867007 9.24106766 50.82867007 8 46.5625 C8 45.716875 8 44.87125 8 44 C7.401875 43.9175 6.80375 43.835 6.1875 43.75 C3.32952403 42.77012253 2.64886484 41.49960893 1 39 C-2.3146234 31.93425957 -2.2854887 24.33483899 -2.3125 16.6875 C-2.31789795 15.73246582 -2.3232959 14.77743164 -2.32885742 13.79345703 C-2.27855225 8.80930779 -1.96241591 4.66757888 0 0 Z " fill="#F9EF5B" transform="translate(148,356)"/>
<path d="M0 0 C2.875 -0.1875 2.875 -0.1875 6 0 C6.66 0.99 7.32 1.98 8 3 C17.86113439 7.03676868 29.03163599 6.42750452 39.47725487 6.41069031 C42.54349941 6.40615681 45.60918353 6.42036487 48.67536926 6.43908691 C56.28231078 6.48179301 63.88923651 6.49310197 71.49627686 6.50531006 C77.94841385 6.51687752 84.40029127 6.54053412 90.85231972 6.58000183 C93.85789352 6.59348059 96.86310645 6.5894197 99.86869812 6.58459473 C101.7265162 6.59394143 103.58433038 6.60411177 105.44213867 6.61523438 C106.26473175 6.60908615 107.08732483 6.60293793 107.93484497 6.59660339 C116.32560342 6.68418129 124.18093636 8.35607088 130.40234375 14.25390625 C135.23639753 19.53708973 140.29616355 25.08389696 140.1953125 32.546875 C140.18564453 33.81337891 140.18564453 33.81337891 140.17578125 35.10546875 C140.15064453 36.41451172 140.15064453 36.41451172 140.125 37.75 C140.11597656 38.63816406 140.10695313 39.52632813 140.09765625 40.44140625 C140.07414577 42.62788058 140.04128499 44.81380094 140 47 C139.35933594 47.28359375 138.71867188 47.5671875 138.05859375 47.859375 C135.25400001 49.41334345 135.14372655 51.03976657 134 54 C129.68110326 60.28203162 123.5716334 64.52422843 116 66 C113.66000794 66.10282193 111.31731348 66.14847531 108.97509766 66.16113281 C107.92530731 66.16858017 107.92530731 66.16858017 106.85430908 66.17617798 C104.54088343 66.19076723 102.2275266 66.1976001 99.9140625 66.203125 C98.72116167 66.20736607 98.72116167 66.20736607 97.50416183 66.21169281 C93.28646259 66.22668108 89.06879745 66.23590976 84.85107422 66.24023438 C80.52984148 66.24568436 76.20892939 66.26963903 71.8877964 66.29820633 C68.53652092 66.31700653 65.18531953 66.32204769 61.83399582 66.32357025 C60.24346561 66.32656391 58.65293565 66.33447864 57.06245804 66.34775543 C40.40238922 66.47677475 24.94737798 64.78186643 12.25 52.8125 C1.26728962 41.1173976 1.26728962 41.1173976 0.81640625 34.171875 C0.87699219 33.45515625 0.93757812 32.7384375 1 32 C0.01 31.67 -0.98 31.34 -2 31 C-4.44385309 20.98808573 -4.12153595 9.44518656 0 0 Z " fill="#F8ED5B" transform="translate(161,425)"/>
<path d="M0 0 C0.66 0 1.32 0 2 0 C1.24155844 6.44675325 1.24155844 6.44675325 0.03125 9.21875 C-1.32571774 12.87845088 -1.70373694 16.44862 -2.125 20.3125 C-2.21136719 21.05306641 -2.29773438 21.79363281 -2.38671875 22.55664062 C-2.59734705 24.37038435 -2.79952986 26.18510543 -3 28 C-2.01 28.33 -1.02 28.66 0 29 C1.46219593 31.16393253 2.80308258 33.31624949 4.125 35.5625 C10.28117529 45.52009146 18.50860841 53.73179414 30.2918148 56.54768658 C33.14052479 57.02347005 35.80271161 57.13463034 38.69033813 57.14717102 C39.82563965 57.15432632 40.96094116 57.16148163 42.13064575 57.16885376 C43.36708832 57.17154266 44.60353088 57.17423157 45.87744141 57.17700195 C47.18698792 57.18357315 48.49653442 57.19014435 49.84576416 57.19691467 C54.18101795 57.21789104 58.51627183 57.22831252 62.8515625 57.23828125 C64.34864698 57.24233151 65.84573128 57.24644851 67.3428154 57.25063133 C74.37955975 57.26967061 81.4162937 57.28390306 88.45305884 57.2922433 C96.55341479 57.30200475 104.6534967 57.32830081 112.75375617 57.36874419 C119.02913847 57.39899191 125.3044426 57.41372043 131.57989633 57.41702431 C135.32110492 57.41936534 139.06202034 57.42820089 142.80315018 57.45348549 C146.3278038 57.47692301 149.85197447 57.48093745 153.3766861 57.47072411 C155.26989407 57.46999989 157.16307838 57.48898114 159.05618286 57.50878906 C167.31779163 57.45900076 175.8409637 56.74290366 182.23768044 50.98621082 C187.23193761 45.55025001 189.27460185 41.73009241 189.125 34.25 C189.10695313 33.07953125 189.08890625 31.9090625 189.0703125 30.703125 C189.04710937 29.81109375 189.02390625 28.9190625 189 28 C192.92474104 31.75410013 192.92474104 31.75410013 193.11352539 34.87939453 C193.10828857 35.62302246 193.10305176 36.36665039 193.09765625 37.1328125 C193.09443359 37.93847656 193.09121094 38.74414062 193.08789062 39.57421875 C193.07951172 40.41597656 193.07113281 41.25773437 193.0625 42.125 C193.05798828 42.97449219 193.05347656 43.82398438 193.04882812 44.69921875 C193.03702874 46.79950909 193.01909306 48.8997633 193 51 C192.34 51 191.68 51 191 51 C190.95875 51.66 190.9175 52.32 190.875 53 C188.75420334 60.27130282 183.52193482 64.76657126 177.34375 68.7734375 C170.4106677 72.40175057 164.02915369 72.29053003 156.36035156 72.2746582 C155.08806702 72.27976913 153.81578247 72.28488007 152.50494385 72.29014587 C149.02537043 72.30350147 145.54590588 72.30411814 142.06631184 72.30158257 C139.15413984 72.30051 136.24198961 72.30540383 133.3298223 72.310188 C126.4532633 72.32127243 119.57675892 72.32172733 112.70019531 72.31567383 C105.62585566 72.30964149 98.55171527 72.32192857 91.4774096 72.3432439 C85.38799792 72.36091144 79.29864936 72.36685296 73.20921302 72.36360615 C69.57934382 72.3618005 65.94961661 72.36435667 62.31977081 72.37832069 C58.26545985 72.3933344 54.21154887 72.3838841 50.15722656 72.37231445 C48.37384888 72.38378006 48.37384888 72.38378006 46.55444336 72.39547729 C30.57998833 72.29505119 17.68313242 65.76766309 6 55 C3.23695705 51.9097546 3 51.37331582 3 47 C2.401875 46.79375 1.80375 46.5875 1.1875 46.375 C-2.46403156 44.07975159 -3.48590388 40.82328498 -4.62890625 36.76953125 C-7.47403499 24.25494398 -6.56364874 11.25196928 0 0 Z " fill="#D1C64F" transform="translate(126,213)"/>
<path d="M0 0 C0.33 0 0.66 0 1 0 C1.13535156 0.92039062 1.27070313 1.84078125 1.41015625 2.7890625 C3.82552836 16.99202902 8.4012695 28.12425018 20.06640625 37.0078125 C27.16834219 41.83069843 34.38051635 45.2392847 43.08979797 45.26742554 C44.28826355 45.27595551 45.48672913 45.28448547 46.72151184 45.29327393 C48.02295639 45.29236755 49.32440094 45.29146118 50.6652832 45.29052734 C52.06041827 45.29651682 53.45555004 45.30332333 54.85067749 45.31088257 C58.62974941 45.32850786 62.40873069 45.33323649 66.18783975 45.33451414 C68.55218392 45.33593834 70.91650525 45.34021305 73.28084373 45.34550858 C81.53872509 45.36399784 89.79654199 45.37218063 98.05444336 45.37060547 C105.73664244 45.36940458 113.41856033 45.39049923 121.10068828 45.4220928 C127.70897654 45.44829589 134.31717319 45.45897107 140.92551297 45.45769465 C144.86671068 45.45718617 148.8076584 45.46280576 152.74880409 45.48405075 C156.45815395 45.5035013 160.1670171 45.50351169 163.87638474 45.48901749 C165.8749148 45.48594978 167.87344527 45.50255828 169.87190247 45.51989746 C177.25728581 45.46856386 182.51854939 44.51595195 189 41 C189.969375 40.67 190.93875 40.34 191.9375 40 C194.48154612 38.76652309 195.04339834 37.60891361 196 35 C196.66 35 197.32 35 198 35 C199.1161656 31.28570102 199.3124195 27.60838492 199.5625 23.75 C199.64628906 22.48671875 199.73007812 21.2234375 199.81640625 19.921875 C199.87699219 18.95765625 199.93757812 17.9934375 200 17 C201.91721011 18.60612165 202.89984077 19.53623752 203.43579102 22.01782227 C204.00391154 41.18934471 204.00391154 41.18934471 198.84375 48.08984375 C192.92883784 54.21779301 186.02307755 59.27331229 177.2468462 59.43672562 C176.16728673 59.43457109 176.16728673 59.43457109 175.06591797 59.43237305 C174.28928897 59.44255337 173.51265997 59.45273369 172.71249676 59.4632225 C170.13898757 59.49338233 167.56585046 59.50262165 164.9921875 59.51171875 C163.16795167 59.52879855 161.34372728 59.54714025 159.51951599 59.56666565 C154.64454929 59.61497986 149.76963783 59.64489413 144.89450455 59.67036438 C139.86604397 59.69890078 134.8377012 59.74164263 129.80932617 59.78222656 C120.90196079 59.85162933 111.99457864 59.90494765 103.08707142 59.9521656 C96.69113337 59.9872537 90.29553878 60.03896577 83.89983368 60.10328007 C78.44037635 60.15802278 72.9809425 60.19818285 67.52130127 60.22915649 C65.40843231 60.24288112 63.29558715 60.26113553 61.18280029 60.28427124 C43.82723633 60.46232299 27.95296003 59.74959555 14.72265625 46.93359375 C5.08511067 37.08951902 -0.2691483 27.61619429 -0.17578125 13.56445312 C-0.15902344 12.57380859 -0.14226562 11.58316406 -0.125 10.5625 C-0.11597656 9.54478516 -0.10695312 8.52707031 -0.09765625 7.47851562 C-0.07424698 4.98542844 -0.041457 2.49284141 0 0 Z " fill="#D3C84E" transform="translate(133,294)"/>
<path d="M0 0 C0.33 0 0.66 0 1 0 C1.12117187 1.02480469 1.24234375 2.04960937 1.3671875 3.10546875 C1.53610459 4.46618979 1.7053952 5.8268645 1.875 7.1875 C1.95363281 7.86103516 2.03226563 8.53457031 2.11328125 9.22851562 C2.60767142 13.12659195 3.47598325 16.39486794 5 20 C5 20.99 5 21.98 5 23 C5.58394531 23.23203125 6.16789063 23.4640625 6.76953125 23.703125 C9.54185707 25.31505525 10.81320891 27.15664126 12.6875 29.75 C19.77291389 38.80213723 28.31587274 42.26798646 39 46 C39 46.66 39 47.32 39 48 C53.02201409 47.96272028 67.0437705 47.90243488 81.06557178 47.81609726 C87.57717172 47.77666574 94.0886373 47.74445582 100.6003418 47.72900391 C106.88990985 47.71380918 113.17910841 47.67931274 119.46851158 47.63169098 C121.86251289 47.61690637 124.25656697 47.60896067 126.65061378 47.60811615 C130.01592575 47.60573604 133.38022517 47.57857074 136.74536133 47.54589844 C137.72504379 47.5509288 138.70472626 47.55595917 139.71409607 47.56114197 C147.8177594 47.44020549 155.58609169 45.83281753 161.9375 40.5625 C162.618125 39.716875 163.29875 38.87125 164 38 C164.68707031 37.30390625 165.37414062 36.6078125 166.08203125 35.890625 C168.67957357 31.97579544 168.66513895 28.78928336 168.75 24.1875 C168.77964844 23.39923828 168.80929687 22.61097656 168.83984375 21.79882812 C168.91011293 19.86642554 168.95737134 17.93320985 169 16 C171 17 171 17 172.09765625 19.11328125 C174.41816682 26.53690597 174.2072495 35.53814412 170.8125 42.5625 C167.89816695 47.5242965 164.83771689 51.7748554 160 55 C159.01 55 158.02 55 157 55 C156.67 55.99 156.34 56.98 156 58 C150.59517507 60.66356968 144.88051403 60.28880625 138.99682617 60.2746582 C137.8984996 60.27976913 136.80017303 60.28488007 135.66856384 60.29014587 C132.0433098 60.3040281 128.41824619 60.30308589 124.79296875 60.30078125 C122.26719594 60.30466931 119.74142378 60.30900421 117.21565247 60.31376648 C111.92230847 60.32122605 106.62903406 60.32107832 101.33569336 60.31567383 C95.23493724 60.30964025 89.13441212 60.32193297 83.0336954 60.3432439 C77.14544733 60.36304932 71.25728909 60.36602574 65.36901283 60.36250877 C62.87284109 60.36302112 60.37666559 60.36824252 57.88051414 60.37832069 C54.38394951 60.3907041 50.88791406 60.3838811 47.39135742 60.37231445 C46.36715698 60.37995819 45.34295654 60.38760193 44.28771973 60.39547729 C33.93573451 60.32006867 26.86298817 57.59874302 19 51 C17.89011719 50.14148438 17.89011719 50.14148438 16.7578125 49.265625 C11.24106766 44.82867007 11.24106766 44.82867007 10 40.5625 C10 39.716875 10 38.87125 10 38 C9.401875 37.9175 8.80375 37.835 8.1875 37.75 C5.32952403 36.77012253 4.64886484 35.49960893 3 33 C-1.72609055 22.92545306 -0.27933579 10.82533612 0 0 Z " fill="#D2C64F" transform="translate(146,362)"/>
<path d="M0 0 C0.33 0 0.66 0 1 0 C1.03738281 1.2065625 1.07476562 2.413125 1.11328125 3.65625 C1.17899219 5.27086178 1.24543771 6.88544378 1.3125 8.5 C1.33505859 9.29148437 1.35761719 10.08296875 1.38085938 10.8984375 C1.94599857 23.43425239 8.25463684 31.85379755 16.6875 40.875 C26.39873099 47.10484629 36.262078 50.1229536 47.77441406 50.19287109 C48.52975937 50.20104858 49.28510468 50.20922607 50.06333923 50.21765137 C52.54742675 50.24233509 55.03145782 50.25897695 57.515625 50.2734375 C58.79600773 50.28142302 58.79600773 50.28142302 60.10225677 50.28956985 C64.62008259 50.31622688 69.13788148 50.33562583 73.65576172 50.35009766 C77.37834272 50.36343062 81.10037478 50.39128199 84.82275391 50.43212891 C89.33607508 50.48163825 93.84889909 50.50624025 98.36248016 50.51332474 C100.07357982 50.52000413 101.7846698 50.53513905 103.4956131 50.55921555 C112.96431773 50.68486714 120.90070853 50.56660044 129 45 C129.969375 44.360625 130.93875 43.72125 131.9375 43.0625 C137.67479695 37.32520305 137.6385458 30.70271367 138 23 C139.99267584 24.86192283 140.92846769 26.38992958 141.24755859 29.11132812 C141.29513603 31.66311554 141.26098224 34.19884745 141.1875 36.75 C141.17396484 37.63816406 141.16042969 38.52632813 141.14648438 39.44140625 C141.11121309 41.62822578 141.06192752 43.81379966 141 46 C140.35933594 46.28359375 139.71867188 46.5671875 139.05859375 46.859375 C136.25400001 48.41334345 136.14372655 50.03976657 135 53 C130.68110326 59.28203162 124.5716334 63.52422843 117 65 C114.66000794 65.10282193 112.31731348 65.14847531 109.97509766 65.16113281 C108.92530731 65.16858017 108.92530731 65.16858017 107.85430908 65.17617798 C105.54088343 65.19076723 103.2275266 65.1976001 100.9140625 65.203125 C99.72116167 65.20736607 99.72116167 65.20736607 98.50416183 65.21169281 C94.28646259 65.22668108 90.06879745 65.23590976 85.85107422 65.24023438 C81.52984148 65.24568436 77.20892939 65.26963903 72.8877964 65.29820633 C69.53652092 65.31700653 66.18531953 65.32204769 62.83399582 65.32357025 C61.24346561 65.32656391 59.65293565 65.33447864 58.06245804 65.34775543 C41.40238922 65.47677475 25.94737798 63.78186643 13.25 51.8125 C2.26728962 40.1173976 2.26728962 40.1173976 1.81640625 33.171875 C1.87699219 32.45515625 1.93757812 31.7384375 2 31 C1.01 30.67 0.02 30.34 -1 30 C-2.09209526 25.57046161 -2.18351084 21.22317626 -2.1875 16.6875 C-2.19974609 15.96626953 -2.21199219 15.24503906 -2.22460938 14.50195312 C-2.23845487 9.35604523 -1.41468981 4.9486185 0 0 Z " fill="#D4C84E" transform="translate(160,426)"/>
<path d="M0 0 C2.86328125 2.61328125 2.86328125 2.61328125 5 5 C5.495 5.495 5.495 5.495 6 6 C6.375 8.3125 6.375 8.3125 6 11 C-5.1033281 21.53768686 -20.79042132 21.75922415 -35.15234375 21.40625 C-45.27481508 20.88943222 -54.02793487 19.03980292 -62 12.5625 C-64 10 -64 10 -64.6875 7.5 C-63.65233682 3.73577024 -61.15178137 2.02414404 -58 0 C-41.90555918 -8.52058632 -16.15346822 -8.12690016 0 0 Z " fill="#F3E959" transform="translate(359,40)"/>
<path d="M0 0 C1.80940289 3.61880578 2.25016906 4.6297386 2.25447559 8.36580753 C2.26030779 9.23783693 2.26613998 10.10986633 2.27214891 11.00832087 C2.26836958 11.96190326 2.26459026 12.91548565 2.26069641 13.89796448 C2.26643473 15.42278133 2.26643473 15.42278133 2.27228898 16.97840255 C2.28263303 20.39524043 2.27862405 23.8119107 2.2746582 27.22875977 C2.27900405 29.67452653 2.28418676 32.12029193 2.29014587 34.5660553 C2.30216975 40.52760039 2.30468493 46.48907928 2.30234561 52.45063043 C2.30056259 57.29932103 2.30231178 62.14799797 2.30657005 66.99668694 C2.30746284 68.03187053 2.30746284 68.03187053 2.30837366 69.08796693 C2.30958543 70.49002775 2.31079956 71.89208857 2.31201603 73.29414939 C2.32289719 86.44912505 2.3207271 99.6040751 2.31463119 112.75905221 C2.30946864 124.77913832 2.3206989 136.79914323 2.33972941 148.81921328 C2.3591319 161.16930623 2.36735913 173.51936082 2.36360615 185.86946911 C2.36169685 192.79975646 2.36415466 199.72997482 2.37832069 206.66024971 C2.39151892 213.18308451 2.3889416 219.7057843 2.37590981 226.22862816 C2.37354705 228.61865926 2.37626789 231.00870181 2.38453293 233.39871979 C2.39502787 236.6703831 2.38687707 239.9415057 2.3742218 243.21315002 C2.38159609 244.15111736 2.38897037 245.0890847 2.39656812 246.05547529 C2.32523809 254.86746193 0.92275555 264.1518139 -5 271 C-5.99 271 -6.98 271 -8 271 C-8.2784375 272.2375 -8.2784375 272.2375 -8.5625 273.5 C-13.4376769 285.36999594 -25.46219208 291.10542269 -36.58984375 296.0546875 C-40.4430093 297.56597771 -43.60905218 298.12339629 -47.75 298.0625 C-48.54921875 298.05347656 -49.3484375 298.04445313 -50.171875 298.03515625 C-51.07679688 298.01775391 -51.07679688 298.01775391 -52 298 C-52.69906942 296.40084119 -53.38389468 294.79544955 -54.0625 293.1875 C-54.63677734 291.84751953 -54.63677734 291.84751953 -55.22265625 290.48046875 C-56 288 -56 288 -55 285 C-53.96101563 284.90203125 -52.92203125 284.8040625 -51.8515625 284.703125 C-44.40316477 283.92905654 -37.77338885 283.03770834 -30.91796875 279.8046875 C-29 279 -29 279 -26 279 C-25.65388672 278.14728516 -25.65388672 278.14728516 -25.30078125 277.27734375 C-23.66878795 274.42013025 -21.67320933 272.71280628 -19.1875 270.5625 C-18.2903125 269.76714844 -17.393125 268.97179687 -16.46875 268.15234375 C-14.72099214 266.62858651 -12.95907659 265.12099801 -11.1875 263.625 C-7.80106896 259.56128276 -6.05405141 254.83602982 -4 250 C-3.34498354 248.66090491 -2.68283071 247.32512809 -2 246 C-1.34 246 -0.68 246 0 246 C0 164.82 0 83.64 0 0 Z " fill="#CCC253" transform="translate(364,157)"/>
<path d="M0 0 C5.71428571 0.71428571 5.71428571 0.71428571 7 2 C7.09801202 3.53896196 7.12631844 5.08241675 7.12698364 6.62449646 C7.12980347 7.62426514 7.13262329 8.62403381 7.13552856 9.65409851 C7.13350433 10.76009903 7.1314801 11.86609955 7.12939453 13.00561523 C7.13114685 14.16322357 7.13289917 15.32083191 7.13470459 16.51351929 C7.13912631 20.36189244 7.13618379 24.21022008 7.1328125 28.05859375 C7.13348549 30.72038328 7.13445379 33.3821714 7.13571167 36.04396057 C7.13753334 41.63193256 7.13512739 47.21989134 7.13037109 52.80786133 C7.12493113 59.27382098 7.1266892 65.73974909 7.1321975 72.20570797 C7.13673187 77.74966529 7.1373775 83.2936131 7.13475883 88.83757168 C7.1331975 92.15198407 7.13338924 95.46637833 7.13629532 98.78079033 C7.13882332 102.47554559 7.13497897 106.17023956 7.12939453 109.86499023 C7.13141876 110.96896652 7.13344299 112.07294281 7.13552856 113.21037292 C7.13270874 114.21296143 7.12988892 115.21554993 7.12698364 116.2485199 C7.12660662 117.12292441 7.12622959 117.99732893 7.12584114 118.89823055 C7 121 7 121 6 123 C3.625 123.125 3.625 123.125 1 123 C-1 121 -1 121 -1.24888897 118.88261318 C-1.2483442 118.00083432 -1.24779943 117.11905546 -1.24723816 116.21055603 C-1.25143265 115.19955338 -1.25562714 114.18855072 -1.25994873 113.14691162 C-1.25432922 112.03358459 -1.24870972 110.92025757 -1.24291992 109.77319336 C-1.24481827 108.60407913 -1.24671661 107.4349649 -1.24867249 106.23042297 C-1.25174815 103.01977028 -1.24585797 99.80928626 -1.23571944 96.5986526 C-1.22695061 93.24387562 -1.22869615 89.88910312 -1.2290802 86.53431702 C-1.22814313 80.90102817 -1.21945282 75.26779313 -1.20581055 69.63452148 C-1.19007695 63.11341846 -1.18481268 56.59237435 -1.1855461 50.07125372 C-1.18615557 43.8071078 -1.18105803 37.54298115 -1.17275429 31.27884102 C-1.16921577 28.60859591 -1.16739023 25.93835762 -1.16686058 23.26811028 C-1.16470461 19.54451365 -1.15597677 15.82099263 -1.14526367 12.09741211 C-1.14571686 10.98206085 -1.14617004 9.86670959 -1.14663696 8.71755981 C-1.14023949 7.20528557 -1.14023949 7.20528557 -1.13371277 5.66246033 C-1.13203692 4.78105849 -1.13036108 3.89965666 -1.12863445 2.99154568 C-1 1 -1 1 0 0 Z " fill="#FDFDF3" transform="translate(346,160)"/>
<path d="M0 0 C36.96 0 73.92 0 112 0 C112.495 3.465 112.495 3.465 113 7 C111.42663764 8.57336236 109.86484258 8.12921875 107.67921448 8.13371277 C106.28053131 8.14011024 106.28053131 8.14011024 104.85359192 8.14663696 C103.82239731 8.14618378 102.7912027 8.14573059 101.72875977 8.14526367 C100.64917999 8.14862228 99.56960022 8.1519809 98.45730591 8.15544128 C94.86866116 8.16498382 91.28006291 8.16689603 87.69140625 8.16796875 C85.20897909 8.17117896 82.72655212 8.17454285 80.24412537 8.17805481 C75.03278159 8.18405431 69.82145441 8.18589386 64.61010742 8.18530273 C59.24679604 8.18476821 53.88355657 8.1918168 48.52026367 8.20581055 C42.06116738 8.22242675 35.60213586 8.22936017 29.14301872 8.22869301 C26.67455619 8.22987718 24.20609308 8.23432322 21.73764229 8.24202538 C18.2918966 8.25177006 14.84638382 8.24896915 11.40063477 8.24291992 C9.8568792 8.25134918 9.8568792 8.25134918 8.28193665 8.25994873 C7.34666138 8.25575424 6.41138611 8.25155975 5.44776917 8.24723816 C4.6323594 8.24778293 3.81694963 8.24832769 2.97683048 8.24888897 C1 8 1 8 -1 6 C-0.67 4.02 -0.34 2.04 0 0 Z " fill="#FDFDF6" transform="translate(191,306)"/>
<path d="M0 0 C0.92830627 -0.00137466 1.85661255 -0.00274933 2.81304932 -0.00416565 C3.83444 -0.00057037 4.85583069 0.0030249 5.90817261 0.00672913 C6.98135742 0.0065831 8.05454224 0.00643707 9.1602478 0.00628662 C12.72061153 0.00698535 16.28092345 0.01477591 19.84127808 0.02259827 C22.30464652 0.02446259 24.76801533 0.02588642 27.23138428 0.02688599 C33.72513853 0.03071005 40.21887053 0.04053941 46.71261597 0.05158997 C53.33492736 0.06180646 59.95724233 0.06638412 66.57955933 0.07142639 C79.58087092 0.08216176 92.58216707 0.09904552 105.58346558 0.12025452 C105.58346558 2.43025452 105.58346558 4.74025452 105.58346558 7.12025452 C103.2418056 8.2910845 101.86571704 8.2484458 99.25631714 8.25396729 C98.34772949 8.25823227 97.43914185 8.26249725 96.50302124 8.26689148 C95.50347412 8.26643829 94.503927 8.26598511 93.47409058 8.26551819 C92.42362549 8.2688768 91.3731604 8.27223541 90.29086304 8.2756958 C86.80505199 8.28522508 83.31928885 8.2871498 79.83346558 8.28822327 C77.41972839 8.29143409 75.00599141 8.29479802 72.59225464 8.29830933 C67.52812244 8.30430528 62.46400732 8.30614871 57.39987183 8.30555725 C50.89602239 8.30545551 44.39228185 8.31911763 37.88845825 8.33632946 C32.90263359 8.34742135 27.9168355 8.34947734 22.93099976 8.34894753 C20.53231429 8.35013152 18.13362822 8.35457655 15.73495483 8.36227989 C12.38750466 8.37202469 9.04029421 8.36922378 5.69284058 8.36317444 C4.69329346 8.36879395 3.69374634 8.37441345 2.66390991 8.38020325 C1.75532227 8.37600876 0.84673462 8.37181427 -0.08938599 8.36749268 C-0.8813739 8.36803744 -1.67336182 8.36858221 -2.48934937 8.36914349 C-4.41653442 8.12025452 -4.41653442 8.12025452 -6.41653442 6.12025452 C-6.54153442 3.49525452 -6.54153442 3.49525452 -6.41653442 1.12025452 C-4.0500456 -0.0629899 -2.63922122 -0.00300595 0 0 Z " fill="#FDFDF5" transform="translate(184.41653442382813,238.87974548339844)"/>
<path d="M0 0 C1.63642456 0.00213753 1.63642456 0.00213753 3.3059082 0.00431824 C4.54058838 0.00124161 5.77526855 -0.00183502 7.04736328 -0.00500488 C8.40047389 0.00189309 9.75358266 0.00916008 11.10668945 0.01676941 C12.48909462 0.01796125 13.8715006 0.01841436 15.25390625 0.01815796 C18.15247663 0.01972315 21.05092356 0.02801533 23.94946289 0.04142761 C27.66872991 0.05841753 31.38786119 0.06224196 35.10716248 0.06148243 C37.96213075 0.0617541 40.81706922 0.06723483 43.67202759 0.07448387 C45.04358698 0.07767063 46.41514975 0.07963796 47.78671265 0.08037758 C49.70197764 0.08254103 51.61723006 0.09207804 53.5324707 0.10197449 C55.16889526 0.10769218 55.16889526 0.10769218 56.83837891 0.11352539 C59.41918945 0.24723816 59.41918945 0.24723816 61.41918945 1.24723816 C61.44608162 2.72630708 61.46553567 4.20551299 61.48168945 5.68473816 C61.49329102 6.5084491 61.50489258 7.33216003 61.5168457 8.18083191 C61.41918945 10.24723816 61.41918945 10.24723816 60.41918945 11.24723816 C58.46653737 11.3569968 56.5098967 11.39635091 54.55419922 11.40837097 C53.29942276 11.41797852 52.0446463 11.42758606 50.75184631 11.43748474 C49.37143128 11.44233183 47.99101415 11.44661088 46.6105957 11.45036316 C45.20434058 11.45611185 43.79808549 11.46186961 42.39183044 11.46763611 C39.44025302 11.47815419 36.48870291 11.48399167 33.53710938 11.48747253 C29.74930914 11.49296151 25.96186763 11.51699426 22.17418003 11.54544449 C19.2685998 11.5640392 16.36310656 11.56927474 13.45747185 11.57080841 C12.06077041 11.57384227 10.66407076 11.5818954 9.26742744 11.59499359 C7.31621489 11.61198746 5.36485522 11.60833873 3.41357422 11.60368347 C2.30184341 11.6073291 1.19011261 11.61097473 0.04469299 11.61473083 C-0.82172318 11.49345825 -1.68813934 11.37218567 -2.58081055 11.24723816 C-4.88244937 7.79477992 -4.92571377 6.29985103 -4.58081055 2.24723816 C-2.58081055 0.24723816 -2.58081055 0.24723816 0 0 Z " fill="#FDFCEC" transform="translate(214.580810546875,443.7527618408203)"/>
<path d="M0 0 C1.27327904 -0.00021904 1.27327904 -0.00021904 2.57228088 -0.0004425 C5.38594086 0.00025573 8.19953514 0.00804399 11.01318359 0.01586914 C12.96088627 0.01773364 14.90858941 0.01915739 16.85629272 0.02015686 C21.98882334 0.02397956 27.12132576 0.03380775 32.25384521 0.04486084 C37.48872496 0.05508027 42.72360925 0.05965562 47.95849609 0.06469727 C58.23455016 0.07543022 68.51058329 0.09250369 78.78662109 0.11352539 C78.91162109 5.86352539 78.91162109 5.86352539 77.78662109 8.11352539 C66.60815939 8.13666019 55.42970335 8.15444631 44.25122261 8.16533756 C39.06102785 8.17056389 33.87084942 8.17765703 28.68066406 8.18896484 C23.67511712 8.19980257 18.66958593 8.20580412 13.66402817 8.20840263 C11.75099311 8.21025528 9.83795895 8.21387284 7.92493057 8.21925545 C5.2526689 8.2264776 2.58047293 8.22751583 -0.09179688 8.22705078 C-1.28725632 8.2324437 -1.28725632 8.2324437 -2.50686646 8.23794556 C-7.98527458 8.22757755 -7.98527458 8.22757755 -10.21337891 7.11352539 C-10.21337891 5.13352539 -10.21337891 3.15352539 -10.21337891 1.11352539 C-7.0064982 -0.48991496 -3.52155044 -0.01570206 0 0 Z " fill="#FDFDF4" transform="translate(212.21337890625,373.886474609375)"/>
<path d="M0 0 C0.94447998 -0.00845947 1.88895996 -0.01691895 2.86206055 -0.02563477 C4.40647324 -0.01652573 4.40647324 -0.01652573 5.98208618 -0.00723267 C7.61709076 -0.0151181 7.61709076 -0.0151181 9.28512573 -0.02316284 C12.89731085 -0.03638964 16.50905652 -0.02760883 20.12124634 -0.01748657 C22.63789962 -0.01950799 25.15455233 -0.02241999 27.67120361 -0.02618408 C32.9555572 -0.03061229 38.23975379 -0.02445279 43.52407837 -0.01016235 C49.59971318 0.00608026 55.6750446 0.00093825 61.75067174 -0.01564157 C67.62182667 -0.03101262 73.49286824 -0.02923415 79.36403275 -0.02049637 C81.84769357 -0.01850678 84.3313622 -0.02090959 86.81501389 -0.02793503 C114.97044118 -0.09004279 114.97044118 -0.09004279 123.28530884 3.38095093 C123.61530884 4.37095093 123.94530884 5.36095093 124.28530884 6.38095093 C125.27530884 6.38095093 126.26530884 6.38095093 127.28530884 6.38095093 C127.28530884 7.04095093 127.28530884 7.70095093 127.28530884 8.38095093 C124.17312985 7.89467296 121.74254952 7.14164342 118.83631897 5.86026001 C113.4348732 3.82000669 108.18086091 3.97588036 102.46914673 4.02450562 C101.30890991 4.02246124 100.1486731 4.02041687 98.95327759 4.01831055 C95.13801045 4.01531468 91.32318047 4.03373851 87.50796509 4.05282593 C84.85377838 4.05588462 82.19961162 4.05785993 79.54542542 4.0585022 C73.99503993 4.06218403 68.44477893 4.07710394 62.8944397 4.09970093 C55.7629317 4.12867555 48.63152327 4.13893517 41.49996281 4.14338303 C36.02607584 4.14692914 30.55221128 4.15733609 25.07833672 4.16925812 C22.44717026 4.17497199 19.81600154 4.17972697 17.18483162 4.18352509 C13.52175015 4.19035935 9.85876139 4.20397563 6.19570923 4.21981812 C5.09913498 4.22093597 4.00256073 4.22205383 2.87275696 4.22320557 C1.88165924 4.22891571 0.89056152 4.23462585 -0.13056946 4.24050903 C-0.99680404 4.2434837 -1.86303862 4.24645836 -2.75552273 4.24952316 C-4.7184557 4.16531803 -4.7184557 4.16531803 -5.71469116 5.38095093 C-5.78617315 6.7333901 -5.79868571 8.0892946 -5.77719116 9.44345093 C-5.75656616 10.74282593 -5.73594116 12.04220093 -5.71469116 13.38095093 C-6.70469116 13.05095093 -7.69469116 12.72095093 -8.71469116 12.38095093 C-8.82305569 10.94512092 -8.90045283 9.50693073 -8.96469116 8.06845093 C-9.01109741 7.26794312 -9.05750366 6.4674353 -9.10531616 5.64266968 C-8.71469116 3.38095093 -8.71469116 3.38095093 -6.9849453 1.76340294 C-4.39018832 0.18334767 -3.01141282 0.00415989 0 0 Z " fill="#D5CB59" transform="translate(183.71469116210938,213.61904907226563)"/>
<path d="M0 0 C0.99 0 1.98 0 3 0 C3.02684312 2.81256281 3.04676188 5.62487241 3.0625 8.4375 C3.07087891 9.23994141 3.07925781 10.04238281 3.08789062 10.86914062 C3.0965143 12.91295221 3.0522815 14.95683902 3 17 C1.39461388 18.60538612 -0.31637374 18.13476705 -2.53942871 18.14476013 C-3.52066711 18.15165863 -4.50190552 18.15855713 -5.51287842 18.16566467 C-7.14135712 18.16958473 -7.14135712 18.16958473 -8.80273438 18.17358398 C-9.93934509 18.180271 -11.07595581 18.18695801 -12.24700928 18.19384766 C-14.72591563 18.20793923 -17.20483527 18.21982004 -19.6837616 18.22979546 C-23.60973886 18.2461604 -27.53561859 18.2693994 -31.46154785 18.29469299 C-42.62795891 18.36591473 -53.79441791 18.42549376 -64.9609375 18.47680664 C-71.78321546 18.50824052 -78.60537893 18.54996237 -85.42756653 18.59700203 C-88.02698289 18.61299321 -90.62642446 18.62532805 -93.22587585 18.63390923 C-96.87139911 18.64611052 -100.51666778 18.67028386 -104.16210938 18.69702148 C-105.7662973 18.6979052 -105.7662973 18.6979052 -107.40289307 18.69880676 C-114.05445396 18.76320426 -120.93729397 18.96864699 -127 22 C-129.6723621 22.13415472 -132.32250488 22.04318541 -135 22 C-130.87298119 17.15890803 -124.25723598 16.32419741 -118.1769619 15.71901894 C-115.21091145 15.59540371 -112.25839634 15.56347616 -109.28979492 15.56762695 C-108.17616577 15.5574353 -107.06253662 15.54724365 -105.91516113 15.53674316 C-102.27021122 15.50679121 -98.62552521 15.49737125 -94.98046875 15.48828125 C-92.43222702 15.47141471 -89.88399352 15.45326185 -87.33576965 15.43388367 C-81.33320113 15.3913423 -75.33070633 15.36175116 -69.32804328 15.33856028 C-62.51217203 15.31148716 -55.69644184 15.26752835 -48.88067091 15.22227156 C-38.27490488 15.15221505 -27.66912416 15.09155876 -17.06323242 15.04418945 C-15.50850975 15.03723305 -15.50850975 15.03723305 -13.92237854 15.03013611 C-12.9623996 15.02605743 -12.00242065 15.02197876 -11.01335144 15.01777649 C-10.13621679 15.0130665 -9.25908215 15.00835651 -8.35536766 15.0035038 C-6.36050857 15.00053629 -4.36563904 15.02690411 -2.37104797 15.05973816 C-0.04389187 15.27358276 -0.04389187 15.27358276 1 14 C0.90968426 11.64305046 0.75311872 9.28846418 0.5625 6.9375 C0.40974609 5.00197266 0.40974609 5.00197266 0.25390625 3.02734375 C0.17011719 2.02832031 0.08632813 1.02929688 0 0 Z " fill="#A7A7A8" transform="translate(281,160)"/>
<path d="M0 0 C0 0.66 0 1.32 0 2 C-7.26 2.99 -14.52 3.98 -22 5 C-15.73 5.33 -9.46 5.66 -3 6 C-3 6.33 -3 6.66 -3 7 C-13.76494143 8.74947934 -26.96846879 10.05739022 -37 5 C-38.01819454 4.01853177 -39.02087851 3.02045142 -40 2 C-35.58939887 1.71188568 -31.17859398 1.42718432 -26.76757812 1.14550781 C-25.27012328 1.0494179 -23.77272573 0.95243026 -22.27539062 0.85449219 C-20.11082537 0.71307392 -17.94606777 0.57499232 -15.78125 0.4375 C-14.48251953 0.35371094 -13.18378906 0.26992187 -11.84570312 0.18359375 C-7.88492132 -0.00549385 -3.96428225 -0.03085045 0 0 Z " fill="#B8B25C" transform="translate(353,116)"/>
<path d="M0 0 C0.99 0.33 1.98 0.66 3 1 C2.34805664 1.47598633 1.69611328 1.95197266 1.02441406 2.44238281 C-1.92611728 6.17004397 -1.50522339 9.30115618 -1.390625 13.921875 C-1.38496521 14.78186096 -1.37930542 15.64184692 -1.37347412 16.52789307 C-1.35111951 19.26916649 -1.30092602 22.00912304 -1.25 24.75 C-1.22993376 26.61065818 -1.21168321 28.47133689 -1.1953125 30.33203125 C-1.15125784 34.88852666 -1.08223754 39.44404022 -1 44 C-3.93504335 41.57539897 -4.54515652 39.74355516 -5 36 C-5.26889605 31.56525503 -5.27700145 27.12955145 -5.3125 22.6875 C-5.34150391 21.48931641 -5.37050781 20.29113281 -5.40039062 19.05664062 C-5.45192445 11.861726 -4.89111061 7.10822526 -1 1 C-0.67 0.67 -0.34 0.34 0 0 Z " fill="#BFB85D" transform="translate(284,91)"/>
<path d="M0 0 C0.33 0.99 0.66 1.98 1 3 C-1.28356246 5.34138543 -3.57813374 7.67166982 -5.875 10 C-6.52597656 10.66773438 -7.17695313 11.33546875 -7.84765625 12.0234375 C-8.47285156 12.65507812 -9.09804687 13.28671875 -9.7421875 13.9375 C-10.3182373 14.52402344 -10.89428711 15.11054688 -11.48779297 15.71484375 C-13 17 -13 17 -15 17 C-15 17.99 -15 18.98 -15 20 C-15.99 19.67 -16.98 19.34 -18 19 C-13.81967908 11.38584404 -8.65925914 2.88641971 0 0 Z " fill="#989898" transform="translate(136,186)"/>
<path d="M0 0 C0.33 0 0.66 0 1 0 C1 9.9 1 19.8 1 30 C0.34 30 -0.32 30 -1 30 C-2.09209526 25.57046161 -2.18351084 21.22317626 -2.1875 16.6875 C-2.19974609 15.96626953 -2.21199219 15.24503906 -2.22460938 14.50195312 C-2.23845487 9.35604523 -1.41468981 4.9486185 0 0 Z " fill="#B4AD58" transform="translate(160,426)"/>
<path d="M0 0 C3.52411411 3.37089176 4.20313057 5.42744191 4.375 10.3125 C4.361632 15.40570966 4.361632 15.40570966 2.8828125 17.8359375 C1.5 19.1875 1.5 19.1875 -1 21 C-1.99 20.67 -2.98 20.34 -4 20 C-3.01 18.6696875 -3.01 18.6696875 -2 17.3125 C1.13678939 11.966704 0.32419612 5.98862274 0 0 Z " fill="#D2C852" transform="translate(315,241)"/>
<path d="M0 0 C0.66 0.33 1.32 0.66 2 1 C0.88409563 4.3477131 -0.14896141 5.32708997 -2.75 7.625 C-3.42546875 8.23601563 -4.1009375 8.84703125 -4.796875 9.4765625 C-7.23260495 11.16084385 -9.08760812 11.62322203 -12 12 C-11.75032057 8.62932765 -10.79181541 7.80600981 -8.25 5.4375 C-5.61829612 3.39413377 -2.98822974 1.49411487 0 0 Z " fill="#B7B7B7" transform="translate(295,29)"/>
<path d="M0 0 C6.6 0.33 13.2 0.66 20 1 C18 3 18 3 14.0859375 3.1953125 C12.51550649 3.18200376 10.94513779 3.15813602 9.375 3.125 C8.57320313 3.11597656 7.77140625 3.10695313 6.9453125 3.09765625 C4.96341477 3.07406223 2.98167019 3.03819065 1 3 C0.67 2.01 0.34 1.02 0 0 Z " fill="#9B9861" transform="translate(338,93)"/>
<path d="M0 0 C-2.2995707 3.44935605 -3.10077031 3.89804378 -7 5 C-9.69223859 5.15484118 -12.29877588 5.09156692 -15 5 C-11.10278277 0.2367345 -5.84721872 -0.27843899 0 0 Z " fill="#AEAEAE" transform="translate(161,177)"/>
<path d="M0 0 C4.03385783 4.32199053 6.37128749 9.35446276 8 15 C7.67 15.66 7.34 16.32 7 17 C1.75423777 11.89228414 0.85361849 7.16020286 0 0 Z " fill="#C8C8C7" transform="translate(135,389)"/>
<path d="M0 0 C0.33 0 0.66 0 1 0 C1.49230769 6.4 1.49230769 6.4 -1 9.4375 C-1.99 10.2109375 -1.99 10.2109375 -3 11 C-3.99 10.67 -4.98 10.34 -6 10 C-5.02526874 8.33073546 -4.04510211 6.66464358 -3.0625 5 C-2.24458984 3.6078125 -2.24458984 3.6078125 -1.41015625 2.1875 C-0.71212891 1.1046875 -0.71212891 1.1046875 0 0 Z " fill="#DFD351" transform="translate(317,251)"/>
<path d="M0 0 C0.66 0.66 1.32 1.32 2 2 C0.71937515 3.7074998 -0.61767557 5.37373596 -2 7 C-2.66 7 -3.32 7 -4 7 C-4.33 7.99 -4.66 8.98 -5 10 C-5.66 10 -6.32 10 -7 10 C-6.67 8.68 -6.34 7.36 -6 6 C-5.34 6 -4.68 6 -4 6 C-3.71125 5.195625 -3.4225 4.39125 -3.125 3.5625 C-2 1 -2 1 0 0 Z " fill="#A3A3A3" transform="translate(277,81)"/>
<path d="M0 0 C0.99 0 1.98 0 3 0 C3 4.95 3 9.9 3 15 C2.01 15 1.02 15 0 15 C0.33 14.67 0.66 14.34 1 14 C0.90968426 11.64305046 0.75311872 9.28846418 0.5625 6.9375 C0.46066406 5.64714844 0.35882813 4.35679687 0.25390625 3.02734375 C0.17011719 2.02832031 0.08632813 1.02929688 0 0 Z " fill="#ADADAE" transform="translate(281,160)"/>
<path d="M0 0 C0.66 0.33 1.32 0.66 2 1 C1.34 2.98 0.68 4.96 0 7 C0.99 7.33 1.98 7.66 3 8 C2.67 8.66 2.34 9.32 2 10 C-0.475 9.01 -0.475 9.01 -3 8 C-2.45276317 4.62537285 -1.9451 2.91765 0 0 Z " fill="#C3BC5D" transform="translate(321,279)"/>
<path d="M0 0 C0.66 0.33 1.32 0.66 2 1 C-0.25 3.5 -0.25 3.5 -3 6 C-4.32 6 -5.64 6 -7 6 C-7 5.34 -7 4.68 -7 4 C-6.030625 3.525625 -5.06125 3.05125 -4.0625 2.5625 C-1.19522563 1.29806053 -1.19522563 1.29806053 0 0 Z " fill="#999999" transform="translate(290,35)"/>
</svg>
